<?xml version="1.0" encoding="UTF-8"?>
<svg xmlns="http://www.w3.org/2000/svg" width="480" height="228" viewBox="0 0 480 228" fill="none">
  <path d="M171.67 156.234C170.28 155.374 168.69 154.944 166.89 154.944H157.94V175.054H166.89C168.67 175.054 170.27 174.614 171.67 173.734C173.07 172.844 174.15 171.634 174.92 170.084C175.69 168.534 176.08 166.824 176.08 164.934C176.08 163.044 175.7 161.314 174.92 159.794C174.15 158.274 173.06 157.084 171.68 156.224M172.35 168.704C171.84 169.844 171.12 170.734 170.17 171.404C169.22 172.064 168.13 172.394 166.88 172.394H160.79V157.644H166.88C168.15 157.644 169.25 157.964 170.2 158.594C171.14 159.224 171.87 160.104 172.37 161.204C172.87 162.314 173.13 163.564 173.13 164.954C173.13 166.344 172.88 167.574 172.36 168.714L172.35 168.704ZM226.14 158.114C227.17 157.444 228.35 157.114 229.71 157.114C230.92 157.114 232.04 157.384 233.08 157.904C234.12 158.434 234.94 159.154 235.56 160.074L237.72 158.354C236.83 157.104 235.7 156.144 234.31 155.454C232.92 154.774 231.4 154.424 229.76 154.424C227.87 154.424 226.19 154.874 224.71 155.754C223.23 156.644 222.09 157.904 221.29 159.504C220.48 161.104 220.08 162.924 220.08 164.964C220.08 167.004 220.49 168.804 221.3 170.404C222.12 171.994 223.26 173.244 224.73 174.144C226.21 175.044 227.9 175.474 229.8 175.474C231.43 175.474 232.92 175.134 234.29 174.454C235.65 173.784 236.79 172.814 237.68 171.544V164.654H230.34V167.334H234.67V170.534C233.54 172.044 231.94 172.804 229.86 172.804C228.45 172.804 227.23 172.464 226.18 171.794C225.14 171.134 224.32 170.204 223.77 169.014C223.21 167.834 222.93 166.464 222.93 164.934C222.93 163.404 223.21 162.084 223.77 160.884C224.32 159.704 225.11 158.764 226.14 158.104M196.64 175.064H199.5V154.954H196.64V175.064ZM258.95 175.074H261.81V154.964H258.95V175.074ZM323.2 154.974L315.08 175.084H318.1L320.05 170.114H329.63L331.58 175.084H334.6L326.49 154.964H323.21L323.2 154.974ZM321.12 167.374L324.84 157.924L328.56 167.374H321.12ZM357.22 172.414V154.984H354.36V175.104H367.58V172.424H357.22V172.414ZM281.72 157.654H288.45V175.084H291.29V157.654H298.05V154.974H281.71V157.654H281.72Z" fill="white"></path>
  <path d="M168.82 141.344V52.6941H157.94V132.144C157.94 137.214 162.05 141.334 167.13 141.334H168.83L168.82 141.344Z" fill="white"></path>
  <path d="M225.3 141.344V131.914C220.3 139.174 213.5 142.794 204.92 142.794C201.13 142.794 197.59 142.064 194.31 140.614C191.03 139.154 188.58 137.344 187 135.144C185.41 132.954 184.29 130.254 183.64 127.074C183.2 124.934 182.98 121.554 182.98 116.914V77.124H193.86V112.744C193.86 118.434 194.08 122.254 194.52 124.234C195.2 127.094 196.66 129.344 198.88 130.974C201.1 132.604 203.84 133.424 207.11 133.424C210.38 133.424 213.43 132.584 216.3 130.914C219.16 129.244 221.19 126.964 222.38 124.074C223.57 121.194 224.16 117.014 224.16 111.524V77.124H235.04V141.344H225.3Z" fill="white"></path>
  <path d="M249.61 141.344V77.1241H259.35V86.1341C261.36 82.9941 264.04 80.4641 267.39 78.5441C270.74 76.6341 274.54 75.6741 278.81 75.6741C283.57 75.6741 287.47 76.6641 290.51 78.6441C293.55 80.6241 295.7 83.3841 296.95 86.9241C302.03 79.4241 308.65 75.6741 316.79 75.6741C323.16 75.6741 328.06 77.4341 331.48 80.9641C334.91 84.4941 336.62 89.9241 336.62 97.2541V131.544C336.62 136.944 332.24 141.324 326.84 141.324H325.8V100.874C325.8 96.5141 325.45 93.3841 324.74 91.4741C324.03 89.5641 322.75 88.0141 320.9 86.8441C319.04 85.6741 316.87 85.0941 314.37 85.0941C309.86 85.0941 306.11 86.5941 303.12 89.5941C300.14 92.5941 298.64 97.4141 298.64 104.014V141.324H287.76V99.5941C287.76 94.7541 286.87 91.1241 285.1 88.7141C283.33 86.2941 280.43 85.0841 276.39 85.0841C273.32 85.0841 270.5 85.8941 267.89 87.5041C265.29 89.1141 263.4 91.4741 262.24 94.5841C261.07 97.6941 260.49 102.164 260.49 108.004V141.324H249.61L249.63 141.344H249.61Z" fill="white"></path>
  <path d="M350.34 52.6941H361.22V65.2141H350.34V52.6941ZM350.34 141.344V77.1241H361.22V131.664C361.22 137.004 356.88 141.344 351.54 141.344H350.34Z" fill="white"></path>
  <path d="M375.32 141.344V77.1241H385.11V86.2541C389.83 79.2041 396.64 75.6741 405.54 75.6741C409.41 75.6741 412.96 76.3741 416.21 77.7641C419.46 79.1541 421.88 80.9841 423.49 83.2341C425.09 85.4941 426.23 88.1641 426.88 91.2741C427.28 93.2841 427.49 96.8141 427.49 101.864V131.264C427.49 136.834 422.98 141.354 417.41 141.354H416.61V102.294C416.61 97.8641 416.19 94.5441 415.34 92.3541C414.49 90.1541 412.99 88.4041 410.84 87.0941C408.69 85.7741 406.15 85.1241 403.25 85.1241C398.62 85.1241 394.61 86.5941 391.25 89.5341C387.88 92.4841 386.2 98.0541 386.2 106.284V141.364H375.32L375.34 141.344H375.32Z" fill="white"></path>
  <path d="M73.1196 139.344L61.0496 54.944L55.4196 48.944C54.2496 47.694 52.0696 48.644 52.2096 50.564V164.084C52.3496 166.114 54.0796 168.124 56.4796 166.734L126.96 130.764C129.06 129.544 128.84 127.254 127.63 125.954L112.02 109.304L77.5896 140.684C75.9396 142.194 73.4296 141.434 73.1196 139.354V139.344Z" fill="#00A2B8"></path>
  <path d="M127.81 90.9641L61.4302 34.8241C60.1402 33.7341 58.0702 35.0941 58.4602 36.8141L61.0502 54.9441L112.02 109.294L127.9 94.7141C129.01 93.5441 128.77 91.9141 127.81 90.9641Z" fill="#64F797"></path>
  <path d="M61.04 54.9441L73.11 139.344C73.42 141.444 75.94 142.164 77.58 140.674L112.01 109.294L61.04 54.9441Z" fill="#002429"></path>
</svg>
